<svg id="Layer_1" data-name="Layer 1" xmlns="http://www.w3.org/2000/svg" viewBox="0 0 100 100"><defs><style>.cls-1{fill:#d7ffe4;}.cls-2{fill:none;stroke:#347591;stroke-linecap:round;stroke-linejoin:round;stroke-width:4px;}</style></defs><title>colored</title><circle class="cls-1" cx="58.5" cy="43" r="35"/><path class="cls-2" d="M71,71.14A12,12,0,0,1,81,83c-2.55,2.89-15.55,4.52-30,4.91-4.62.12-9.38,0.12-14,0-14.43-.41-27.42-2-30-4.9A12,12,0,0,1,17,71.14"/><line class="cls-2" x1="41" y1="60" x2="45" y2="60"/><line class="cls-2" x1="43" y1="79" x2="43" y2="87"/><path class="cls-2" d="M24,30.17v11A3.24,3.24,0,0,0,22,44v4a3.24,3.24,0,0,0,2,2.81V53c0,9.94,8.51,18,19,18s19-8.06,19-18V50.81c2-.42,2-1.52,2-2.81V44c0-1.3,0-2.4-2-2.81V33"/><path class="cls-2" d="M62,41.11L47,41c-11.5.08-24.94-8.44-27-20H53.19A8.81,8.81,0,0,1,62,29.81v11.3Z"/><line class="cls-2" x1="41" y1="60" x2="45" y2="60"/><polyline class="cls-2" points="35.74 87.63 24 71 31 67"/><polyline class="cls-2" points="51.26 87.63 63 71 56 67"/></svg>