<svg id="Layer_1" data-name="Layer 1" xmlns="http://www.w3.org/2000/svg" viewBox="0 0 100 100"><defs><style>.cls-1{fill:#d7ffe4;}.cls-2{fill:none;stroke:#347591;stroke-linecap:round;stroke-linejoin:round;stroke-width:4px;}</style></defs><title>colored</title><circle class="cls-1" cx="56.49" cy="44" r="35"/><line class="cls-2" x1="44.18" y1="56.1" x2="25.57" y2="75.86"/><line class="cls-2" x1="34.47" y1="69.94" x2="49.47" y2="85"/><line class="cls-2" x1="39.47" y1="61.9" x2="59.47" y2="81.99"/><line class="cls-2" x1="49.04" y1="58.46" x2="66.47" y2="75.96"/><line class="cls-2" x1="62.04" y1="58.46" x2="73.47" y2="69.94"/><path class="cls-2" d="M20.68,69.54A31.65,31.65,0,0,1,16.5,57.82"/><path class="cls-2" d="M78.5,58a31.24,31.24,0,0,1-31,27,30.83,30.83,0,0,1-21.33-8.54"/><path class="cls-2" d="M78.42,49.92a32,32,0,0,0-1.59-6.08A31.07,31.07,0,0,0,51.47,23l0,0.33V50H78.21"/><path class="cls-2" d="M16.5,49.79A31.25,31.25,0,0,1,43.47,23h0.28L43.5,53.81a4.16,4.16,0,0,0,4,4.19h31"/></svg>