<svg id="Layer_1" data-name="Layer 1" xmlns="http://www.w3.org/2000/svg" viewBox="0 0 100 100"><defs><style>.cls-1{fill:#d7fdff;}.cls-2{fill:none;stroke:#347591;stroke-linecap:round;stroke-linejoin:round;stroke-width:4px;}</style></defs><title>colored</title><circle class="cls-1" cx="59" cy="43" r="35"/><path class="cls-2" d="M44,17c-30.62.13-29.75,35.38-31,47H28"/><path class="cls-2" d="M44,17c30.63,0.13,29.75,35.38,31,47H66"/><path class="cls-2" d="M68.16,72A11.92,11.92,0,0,1,80,84c-5.91,6.71-68,6.63-74,0A11.92,11.92,0,0,1,17.84,72H20l7,16"/><line class="cls-2" x1="33" y1="69" x2="33" y2="78"/><line class="cls-2" x1="53" y1="69" x2="53" y2="78"/><path class="cls-2" d="M32,45H25v9a18,18,0,0,0,36,0V45H41"/><line class="cls-2" x1="41" y1="61" x2="45" y2="61"/><polyline class="cls-2" points="33 45 35 38 36.43 33 36.71 32"/><polyline class="cls-2" points="59 88 66 72 67.92 72"/></svg>