<svg id="Layer_1" data-name="Layer 1" xmlns="http://www.w3.org/2000/svg" viewBox="0 0 100 100"><defs><style>.cls-1{fill:#d7fdff;}.cls-2{fill:none;stroke:#347591;stroke-linecap:round;stroke-linejoin:round;stroke-width:4px;}</style></defs><title>colored</title><rect class="cls-1" x="23" y="13" width="64" height="64" rx="6" ry="6"/><path class="cls-2" d="M54,57V85H70a3.69,3.69,0,0,0,4-3.62V43"/><path class="cls-2" d="M54,51V35a4,4,0,0,1,4-4H70a4,4,0,0,1,4,4"/><path class="cls-2" d="M54,49H38a4,4,0,0,0-4,4V85H54V51"/><path class="cls-2" d="M14,67H30.38A3.62,3.62,0,0,1,34,70.62V81a4,4,0,0,1-4,4H14a0,0,0,0,1,0,0V67A0,0,0,0,1,14,67Z" transform="translate(48 152) rotate(180)"/><line class="cls-2" x1="34" y1="57" x2="54" y2="77"/><line class="cls-2" x1="34" y1="70" x2="48" y2="84"/><line class="cls-2" x1="39" y1="49" x2="53" y2="63"/></svg>