<svg id="Layer_1" data-name="Layer 1" xmlns="http://www.w3.org/2000/svg" viewBox="0 0 100 100"><defs><style>.cls-1{fill:#d7fdff;}.cls-2{fill:none;stroke:#347591;stroke-linecap:round;stroke-linejoin:round;stroke-width:4px;}.cls-3{fill:#347591;}</style></defs><title>colored</title><circle class="cls-1" cx="56" cy="48" r="35"/><line class="cls-2" x1="47" y1="68" x2="47" y2="82"/><circle class="cls-3" cx="47" cy="89" r="3" transform="translate(-38.2 35.42) rotate(-30)"/><polyline class="cls-2" points="37 68 37 82 31 82"/><circle class="cls-3" cx="24" cy="82" r="3" transform="translate(-37.78 22.99) rotate(-30)"/><polyline class="cls-2" points="57 68 57 82 63 82"/><circle class="cls-3" cx="70" cy="82" r="3" transform="translate(-36.01 101.62) rotate(-60)"/><path class="cls-2" d="M47,68H37m-9.09-.17-2.27-.09A13.39,13.39,0,1,1,25.33,41a21.45,21.45,0,0,1,39.25-4.09c0.55-.05,1.11-0.08,1.66-0.08a15.46,15.46,0,0,1,2.69,30.73l-2.83.32"/><path class="cls-2" d="M50.84,52.24a15.64,15.64,0,0,1,15.78-15.5"/></svg>