<svg id="Layer_1" data-name="Layer 1" xmlns="http://www.w3.org/2000/svg" viewBox="0 0 100 100"><defs><style>.cls-1{fill:#d7fdff;}.cls-2{fill:none;stroke:#347591;stroke-linecap:round;stroke-linejoin:round;stroke-width:4px;}</style></defs><title>colored</title><circle class="cls-1" cx="61" cy="42" r="35"/><path class="cls-2" d="M70,70h1.16A11.92,11.92,0,0,1,83,82c-5.91,6.71-68,6.63-74,0A11.92,11.92,0,0,1,20.84,70H22"/><path class="cls-2" d="M64,52V51a4,4,0,0,0,2-4V43c0-1.3,0-2.4-2-2.81V32"/><path class="cls-2" d="M26,35v5.19A3.24,3.24,0,0,0,24,43v4a4.74,4.74,0,0,0,2,4v1"/><path class="cls-2" d="M23,23v2c0,8.28,7.22,15,15.5,15a15.79,15.79,0,0,0,13.76-8H64V28c0-2.21-.79-4-3-4H54a14.91,14.91,0,0,0-3.8-9H23"/><path class="cls-2" d="M26,51v7c0,9.94,8.51,20,19,20S64,67.94,64,58V51l-7.94,5L49.5,52H41.78l-6.83,4Z"/><line class="cls-2" x1="43" y1="59" x2="47" y2="59"/><line class="cls-2" x1="45" y1="78" x2="45" y2="86"/></svg>