<svg id="Layer_1" data-name="Layer 1" xmlns="http://www.w3.org/2000/svg" viewBox="0 0 100 100"><defs><style>.cls-1{fill:#d7ffe4;}.cls-2{fill:none;stroke:#347591;stroke-linecap:round;stroke-linejoin:round;stroke-width:4px;}</style></defs><title>colored</title><rect class="cls-1" x="25" y="13" width="64" height="64" rx="6" ry="6"/><line class="cls-2" x1="12" y1="88" x2="82" y2="88"/><line class="cls-2" x1="77" y1="48" x2="77" y2="74"/><line class="cls-2" x1="64" y1="48" x2="64" y2="82"/><line class="cls-2" x1="30" y1="48" x2="30" y2="82"/><line class="cls-2" x1="17" y1="74" x2="17" y2="48"/><line class="cls-2" x1="77" y1="82" x2="17" y2="82"/><path class="cls-2" d="M19,47H79.36a2.11,2.11,0,0,0,.89-4L49.5,28.49a4.31,4.31,0,0,0-4,0L14.75,43a2.11,2.11,0,0,0,.89,4H19"/><path class="cls-2" d="M52,80V61a4.79,4.79,0,0,0-4.75-5H47.12A5.11,5.11,0,0,0,42,61V74"/></svg>